<svg width="1440" height="1355" viewBox="0 0 1440 1355" fill="none" xmlns="http://www.w3.org/2000/svg">
<path fill-rule="evenodd" clip-rule="evenodd" d="M1595.88 96.3922C1834.07 -38.7044 2134.04 -34.2163 2387.12 131.367L2058.62 633.452C1990.25 588.721 1931.2 595.997 1891.89 618.291C1852.98 640.362 1808.3 692.176 1809.44 792.692C1812.01 1020.7 1764.22 1251.72 1635.61 1437.46C1499.78 1633.62 1289.87 1754.4 1032.4 1769.07C889.043 1777.25 759.941 1739.16 668.803 1708.72C630.769 1696.02 599.612 1684.92 572.165 1675.15C520.915 1656.91 482.599 1643.26 436.604 1632.34C378.94 1618.66 346.072 1620.28 320.942 1627.67C296.833 1634.75 248.529 1656.35 178.177 1738.66L-277.904 1348.8C-150.728 1200.02 -8.77923 1099.18 151.796 1052C311.349 1005.12 457.597 1020.65 575.187 1048.57C654.467 1067.39 741.927 1098.43 805.838 1121.11C826.271 1128.36 844.297 1134.75 858.879 1139.62C936.982 1165.71 974.969 1171.37 998.256 1170.05C1074.07 1165.73 1113.35 1137.74 1142.33 1095.89C1178.52 1043.62 1211.15 947.405 1209.47 799.475C1206 491.892 1357.3 231.712 1595.88 96.3922Z" fill="#E3E9F5"/>
</svg>
