<svg width="14" height="9" viewBox="0 0 14 9" fill="none" xmlns="http://www.w3.org/2000/svg">
<path d="M7.904 8.474C7.70133 8.474 7.53667 8.41067 7.41 8.284C7.28333 8.132 7.22 7.95467 7.22 7.752C7.22 7.57467 7.258 7.41 7.334 7.258L9.766 0.949999C9.89267 0.696666 10.0447 0.481333 10.222 0.304001C10.3993 0.101334 10.6653 0 11.02 0H12.958C13.186 0 13.3633 0.0760001 13.49 0.228C13.6167 0.380001 13.6547 0.582667 13.604 0.836L12.616 7.258C12.5907 7.562 12.4767 7.84067 12.274 8.094C12.0713 8.34733 11.78 8.474 11.4 8.474H7.904ZM0.684 8.474C0.481333 8.474 0.316667 8.41067 0.19 8.284C0.0633333 8.132 0 7.95467 0 7.752C0 7.57467 0.038 7.41 0.114 7.258L2.546 0.949999C2.67267 0.696666 2.82467 0.481333 3.002 0.304001C3.17933 0.101334 3.44533 0 3.8 0H5.738C5.94067 0 6.10533 0.0760001 6.232 0.228C6.384 0.380001 6.43467 0.582667 6.384 0.836L5.396 7.258C5.37067 7.562 5.25667 7.84067 5.054 8.094C4.85133 8.34733 4.56 8.474 4.18 8.474H0.684Z" fill="#2D3639"/>
</svg>
